HIERARCHY
ROOT Hips
{
	OFFSET	0.00	0.00	0.00
	CHANNELS 6 Xposition Yposition Zposition Zrotation Xrotation Yrotation
	JOINT Spine
	{
		OFFSET	 0.00	0.01	 0.00
		CHANNELS 3 Zrotation Xrotation Yrotation
		JOINT Spine1
		{
			OFFSET	 0.00	 2.45913012437421	 0.00
			CHANNELS 3 Zrotation Xrotation Yrotation
            JOINT Neck
            {
                OFFSET	 0.00	 2.48462964506057	 0.00
                CHANNELS 3 Zrotation Xrotation Yrotation
                JOINT Head
                {
                    OFFSET	 0.00	 0.927524780924562	 0.00
                    CHANNELS 3 Zrotation Xrotation Yrotation
                    End Site 
                    {
                        OFFSET	 0.00	 1.14999962169752	 0.00
                    }
                }
            }
			JOINT LeftShoulder
			{
				OFFSET	 0.00	 2.48462964506057	 0.00
				CHANNELS 3 Zrotation Xrotation Yrotation
				JOINT LeftUpArm
				{
					OFFSET	 0.00	 1.24881979654096	 0.00
					CHANNELS 3 Zrotation Xrotation Yrotation
					JOINT LeftForeArm
					{
						OFFSET	 0.00	2.59758046908119	 0.00
						CHANNELS 3 Zrotation Xrotation Yrotation
						JOINT LeftHand
						{
							OFFSET	 0.00	2.45542024364365	 0.00
							CHANNELS 3 Zrotation Xrotation Yrotation
							JOINT LeftHandThumb 
							{
								OFFSET	 0.00	0.00	 0.00
								CHANNELS 3 Zrotation Xrotation Yrotation
								End Site
								{
									OFFSET	 0.00	0.00	1.00000003353624
								}
							}
							JOINT L_Wrist_End 
							{
								OFFSET	 0.00	0.99999967115358	 0.00
								CHANNELS 3 Zrotation Xrotation Yrotation
								End Site 
								{
									OFFSET	 0.00	 0.00	 0.00
								}
							}
						}
					}
				}
			}
			JOINT RightShoulder
			{
				OFFSET	 0.00	 2.48462964506057	 0.00
				CHANNELS 3 Zrotation Xrotation Yrotation
				JOINT RightUpArm
				{
					OFFSET	 0.00	 1.24881979654096	 0.00
					CHANNELS 3 Zrotation Xrotation Yrotation
					JOINT RightForeArm
					{
						OFFSET	 0.00	2.59758046908119	 0.00
						CHANNELS 3 Zrotation Xrotation Yrotation
						JOINT RightHand
						{
							OFFSET	 0.00	2.45542024364365	 0.00
							CHANNELS 3 Zrotation Xrotation Yrotation
							JOINT RightHandThumb 
							{
								OFFSET	 0.00	0.00	 0.00
								CHANNELS 3 Zrotation Xrotation Yrotation
								End Site
								{
									OFFSET	 0.00	0.00	1.00000003353624
								}
							}
							JOINT R_Wrist_End 
							{
								OFFSET	 0.00	0.99999967115358	 0.00
								CHANNELS 3 Zrotation Xrotation Yrotation
								End Site 
								{
									OFFSET	 0.00	 0.00	 0.00
								}
							}
						}
					}
				}
			}
		}
	}
	JOINT LeftUpLeg
	{
		OFFSET	 1.2719394002717	 0.00	 0.00
		CHANNELS 3 Zrotation Xrotation Yrotation
		JOINT LeftLowLeg
		{
			OFFSET	 0.00	-4.3429100912261	 0.00
			CHANNELS 3 Zrotation Xrotation Yrotation
			JOINT LeftFoot
			{
				OFFSET	 0.00	-4.48767017425826	 0.00
				CHANNELS 3 Zrotation Xrotation Yrotation
				JOINT LeftToeBase
                {
                    OFFSET	 0.00	0.00	 1.51507020887566
                    CHANNELS 3 Zrotation Xrotation Yrotation
                    End Site 
                    {
                        OFFSET	 0.00	0.00	 0.75000010571191
                    }
                }
			}
		}
	}
	JOINT RightUpLeg
	{
		OFFSET	 -1.2719393604653	 0.00	 0.00
		CHANNELS 3 Zrotation Xrotation Yrotation
		JOINT RightLowLeg
		{
			OFFSET	 0.00	-4.3429100912261	 0.00
			CHANNELS 3 Zrotation Xrotation Yrotation
			JOINT RightFoot
			{
				OFFSET	 0.00	-4.48767017425826	 0.00
				CHANNELS 3 Zrotation Xrotation Yrotation
				JOINT RightToeBase
                {
                    OFFSET	 0.00	0.00	 1.51507020887566
                    CHANNELS 3 Zrotation Xrotation Yrotation
                    End Site 
                    {
                        OFFSET	 0.00	0.00	 0.749999965609858
                    }
                }   
			}
		}
	}
}
MOTION 
Frames:	16 
Frame Time: 0.02 
  1.4106500244140625 -8.501849975585937 9.371640014648438 145.687 85.3919 -153.939 -0.505456 -14.8942 5.33514 3.00169 20.8202 -7.14614 14.3165 46.4318 344.801 -80.5509 -80.5278 275.015 -117.5086 -2.68091 366.897 -42.6803 4.74475 4.78911 0.0 110.433 0.0 43.6312 -12.7402 23.4812 0.0 0.0 0.0 0.0 0.0 0.0 118.1446 -0.441105 -365.651 36.898 24.205 -353.738 0.0 147.449 0.0 -15.351 -12.885 34.3205 0.0 0.0 0.0 0.0 0.0 0.0 -3.66466 -6.88938 -4.68088 0.0 19.5428 0.0 -20.4497 -9.1989 7.12089 0.0 -16.27538 0.0 4.5187 -9.69087 24.2226 0.0 23.3515 0.0 27.7659 -7.8766003 -0.0858542 0.0 -17.47848 0.0 
  1.4155900573730469 -8.500859985351562 9.371840209960938 144.939 85.5028 -153.329 -0.451176 -14.8458 5.50684 2.76421 20.7642 -7.07803 15.2925 46.6852 343.975 -80.0649 -80.765 275.736 -117.344 -2.66037 367.03 -42.7816 4.84416 4.99424 0.0 110.683 0.0 43.4451 -12.6186 23.6589 0.0 0.0 0.0 0.0 0.0 0.0 118.191696 -0.393446 -365.777 37.1126 25.0739 -353.332 0.0 147.518 0.0 -12.7835 -9.05684 34.8761 0.0 0.0 0.0 0.0 0.0 0.0 -3.69449 -6.7594 -4.61799 0.0 19.5426 0.0 -20.396 -9.226101 7.21027 0.0 -16.28524 0.0 4.5016 -9.63368 24.2614 0.0 23.4346 0.0 27.787 -7.8157997 0.0169471 0.0 -17.4855 0.0 
  1.420659942626953 -8.499879760742187 9.372219848632813 143.967 85.6353 -152.464 -0.465913 -14.8494 5.61273 2.65677 20.8367 -6.99316 16.1016 46.8068 343.242 -79.7931 -80.9423 276.21 -117.2487 -2.62752 367.077 -42.789 4.95942 5.20083 0.0 110.91 0.0 43.1153 -12.5709 23.5744 0.0 0.0 0.0 0.0 0.0 0.0 118.1791 -0.393432 -365.775 37.3549 25.7741 -353.191 0.0 147.433 0.0 -10.3555 -5.2038 35.2425 0.0 0.0 0.0 0.0 0.0 0.0 -3.72092 -6.61065 -4.52164 0.0 19.5434 0.0 -20.3676 -9.219101 7.23517 0.0 -16.30406 0.0 4.48615 -9.54542 24.3048 0.0 23.5188 0.0 27.7629 -7.7759 0.0529621 0.0 -17.51009 0.0 
  1.4270500183105468 -8.499030151367187 9.372210083007813 142.748 85.7683 -151.31 -0.459516 -14.8373 5.69696 2.54279 20.9281 -6.9549 16.54 46.9287 342.916 -79.5081 -81.0823 276.595 -117.1751 -2.65672 366.993 -42.8081 4.99697 5.48423 0.0 111.105 0.0 42.9104 -12.3889 23.757 0.0 0.0 0.0 0.0 0.0 0.0 118.2046 -0.263157 -365.817 37.3877 26.2995 -353.745 0.0 147.912 0.0 -10.7044 -5.70097 34.2054 0.0 0.0 0.0 0.0 0.0 0.0 -3.7755 -6.45365 -4.4771 0.0 19.5373 0.0 -20.3185 -9.2185 7.2861 0.0 -16.31631 0.0 4.45465 -9.44741 24.3508 0.0 23.6165 0.0 27.7785 -7.7856007 0.0774352 0.0 -17.51127 0.0 
  1.4357200622558595 -8.49739013671875 9.372369995117188 141.568 85.8774 -150.17 -0.38828 -14.7819 5.85314 2.32838 20.9642 -6.91843 17.0707 46.9653 342.491 -79.4401 -81.2641 276.831 -117.0861 -2.64542 367.031 -42.8151 5.07632 5.65249 0.0 111.331 0.0 42.5486 -12.2575 23.1595 0.0 0.0 0.0 0.0 0.0 0.0 118.1978 -0.212589 -365.726 37.7003 26.5451 -353.962 0.0 147.9 0.0 -9.4894 -4.78379 34.7318 0.0 0.0 0.0 0.0 0.0 0.0 -3.84629 -6.33202 -4.42128 0.0 19.5305 0.0 -20.2341 -9.197599 7.3311 0.0 -16.31404 0.0 4.40927 -9.40598 24.3294 0.0 23.7662 0.0 27.8347 -7.7987003 0.145197 0.0 -17.54921 0.0 
  1.445570068359375 -8.49552001953125 9.372109985351562 140.425 85.9442 -149.004 -0.392259 -14.7522 5.92719 2.2896 21.0597 -6.85136 17.1719 46.8065 342.418 -79.2779 -81.3558 277.096 -117.082596 -2.64006 367.082 -42.8447 5.24326 5.79772 0.0 111.542 0.0 42.4435 -12.314 23.0658 0.0 0.0 0.0 0.0 0.0 0.0 118.1414 -0.251213 -365.639 37.9045 26.7623 -354.306 0.0 148.011 0.0 -8.83903 -5.1251 34.6218 0.0 0.0 0.0 0.0 0.0 0.0 -3.94242 -6.23612 -4.46859 0.0 19.4915 0.0 -20.1052 -9.148001 7.39015 0.0 -16.34317 0.0 4.34453 -9.38736 24.3743 0.0 23.8959 0.0 27.7726 -7.886299 0.0808297 0.0 -17.66922 0.0 
  1.4561000061035156 -8.4935302734375 9.371510009765625 139.201 86.025 -147.672 -0.370878 -14.6859 5.98417 2.17839 21.0841 -6.85001 17.3344 46.7985 342.328 -79.2053 -81.4535 277.249 -117.053 -2.6274 367.18 -42.8179 5.35896 5.90579 0.0 111.724 0.0 42.4099 -12.3808 23.0459 0.0 0.0 0.0 0.0 0.0 0.0 118.1194 -0.240797 -365.648 38.1267 26.8236 -354.279 0.0 147.809 0.0 -7.70507 -4.27538 35.0545 0.0 0.0 0.0 0.0 0.0 0.0 -4.04018 -6.14543 -4.60546 0.0 19.4753 0.0 -20.0177 -9.1003 7.40044 0.0 -16.39455 0.0 4.27902 -9.40104 24.2428 0.0 24.1443 0.0 27.879 -7.9662 0.154886 0.0 -17.5847 0.0 
  1.4688900756835936 -8.489459838867187 9.3702099609375 137.668 86.0117 -145.987 -0.408962 -14.5821 6.04526 2.09693 21.0006 -6.77634 17.4176 46.6805 342.237 -78.6491 -81.4857 277.873 -117.0147 -2.5674 367.294 -42.831 5.42601 6.08374 0.0 111.873 0.0 42.3016 -12.3429 23.2453 0.0 0.0 0.0 0.0 0.0 0.0 118.095505 -0.376917 -365.532 38.2768 26.7557 -354.609 0.0 147.715 0.0 -7.53474 -4.03073 34.4806 0.0 0.0 0.0 0.0 0.0 0.0 -4.21659 -6.14768 -4.81534 0.0 19.4832 0.0 -19.9552 -9.017401 7.38016 0.0 -16.47854 0.0 4.17681 -9.59989 24.1351 0.0 24.6672 0.0 28.0639 -8.112801 0.325717 0.0 -16.92442 0.0 
  1.4818699645996094 -8.484609985351563 9.368829956054688 136.417 85.9087 -144.503 -0.449952 -14.5802 6.0326 1.96722 20.8996 -6.80928 17.2682 46.8975 342.488 -78.2526 -81.4748 278.212 -116.9565 -2.56469 367.395 -42.8445 5.52372 6.15924 0.0 111.981 0.0 42.2776 -12.5657 22.7749 0.0 0.0 0.0 0.0 0.0 0.0 118.0735 -0.271559 -365.648 38.3406 26.6998 -354.68 0.0 147.615 0.0 -6.86991 -3.67 34.6294 0.0 0.0 0.0 0.0 0.0 0.0 -4.42051 -6.21384 -5.10246 0.0 19.4342 0.0 -19.7907 -8.856001 7.36248 0.0 -16.59859 0.0 4.07365 -9.99563 23.9078 0.0 25.4292 0.0 28.445 -8.3039 0.624534 0.0 -17.21329 0.0 
  1.4957200622558593 -8.477059936523437 9.365469970703124 135.16 85.6805 -142.938 -0.560006 -14.5352 6.01371 1.83032 20.6086 -6.78713 17.0752 47.0798 342.683 -77.6317 -81.3708 278.788 -116.8397 -2.62006 367.548 -42.8833 5.63612 6.38842 0.0 112.016 0.0 42.2921 -12.531 23.264 0.0 0.0 0.0 0.0 0.0 0.0 118.0001 -0.334366 -365.587 38.5146 26.5052 -355.078 0.0 147.427 0.0 -6.36482 -2.78398 34.7474 0.0 0.0 0.0 0.0 0.0 0.0 -4.70078 -6.42926 -5.34515 0.0 19.4432 0.0 -19.8347 -8.679899 7.13832 0.0 -16.633419 0.0 3.95007 -10.6952 23.6923 0.0 26.6137 0.0 28.5719 -8.596399 0.878743 0.0 -17.38348 0.0 
  1.5089399719238281 -8.467849731445312 9.360139770507812 133.915 85.3142 -141.289 -0.81031 -14.5222 5.96103 1.74518 20.288 -6.67559 17.1492 47.1367 342.55 -76.9237 -81.2941 279.557 -116.7204 -2.61928 367.604 -42.9204 5.72887 6.74253 0.0 112.108 0.0 42.3851 -12.6269 23.2731 0.0 0.0 0.0 0.0 0.0 0.0 117.9645 -0.472628 -365.543 38.57 26.4334 -355.226 0.0 147.356 0.0 -5.52866 -2.21068 35.1694 0.0 0.0 0.0 0.0 0.0 0.0 -5.07217 -6.71803 -5.73318 0.0 19.3738 0.0 -19.7298 -8.4251 6.9802 0.0 -16.744709 0.0 3.79014 -11.6775 23.4651 0.0 28.1921 0.0 28.727 -8.938299 1.18427 0.0 -17.41264 0.0 
  1.5201300048828126 -8.456530151367188 9.353060302734375 132.388 84.8585 -139.281 -1.19868 -14.4882 5.84933 1.70494 19.9145 -6.51055 17.078 47.14 342.552 -75.7453 -81.1818 280.797 -116.6215 -2.62816 367.657 -42.9399 5.86552 7.11759 0.0 112.247 0.0 42.549 -12.8863 23.218 0.0 0.0 0.0 0.0 0.0 0.0 117.843704 -0.625673 -365.489 38.6818 26.3947 -355.559 0.0 147.437 0.0 -5.29265 -2.08195 35.2876 0.0 0.0 0.0 0.0 0.0 0.0 -5.50263 -7.04316 -6.03506 0.0 19.2643 0.0 -19.6658 -8.0938 6.65738 0.0 -16.86021 0.0 3.60412 -12.9052 23.2254 0.0 30.1915 0.0 29.1187 -9.2167 1.65991 0.0 -17.62588 0.0 
  1.5294500732421874 -8.443900146484374 9.34426025390625 130.313 84.3556 -136.577 -1.63454 -14.3305 5.75019 1.54804 19.3799 -6.33172 17.1516 47.2391 342.412 -74.2762 -81.051 282.301 -116.462 -2.61978 367.915 -42.9443 6.12711 7.39966 0.0 112.366 0.0 42.9452 -13.2231 22.9729 0.0 0.0 0.0 0.0 0.0 0.0 117.7088 -0.7754 -365.509 38.9406 26.3217 -355.607 0.0 147.397 0.0 -4.27969 -1.51437 35.7495 0.0 0.0 0.0 0.0 0.0 0.0 -5.98376 -7.42605 -6.07199 0.0 19.2674 0.0 -19.6011 -7.6350994 6.02656 0.0 -17.01623 0.0 3.30065 -14.2539 22.5856 0.0 32.5015 0.0 29.3288 -9.3696 2.22985 0.0 -16.96679 0.0 
  1.5373599243164062 -8.43114013671875 9.334710083007813 128.374 83.7776 -133.862 -2.12153 -14.2355 5.62612 1.35945 18.9822 -6.17145 17.0816 47.2279 342.473 -72.0369 -80.9386 284.522 -116.2961 -2.58564 368.035 -42.9037 6.19468 7.62279 0.0 112.64 0.0 42.6299 -13.5752 22.6989 0.0 0.0 0.0 0.0 0.0 0.0 117.6583 -0.907652 -365.53 38.95 26.3412 -356.278 0.0 147.939 0.0 -5.69568 -4.01572 34.5923 0.0 0.0 0.0 0.0 0.0 0.0 -6.61015 -7.67661 -6.8393 0.0 18.9973 0.0 -19.4969 -7.2651997 5.91695 0.0 -17.10503 0.0 2.86816 -15.774 21.7175 0.0 35.0217 0.0 29.1807 -9.382601 2.7098 0.0 -17.450901 0.0 
  1.542449951171875 -8.417680053710937 9.325029907226563 126.632 83.2611 -131.161 -2.44874 -14.0456 5.62062 0.93116 18.5959 -6.08093 17.3312 47.169 342.232 -70.0394 -80.9145 286.628 -115.9938 -2.54765 368.214 -42.8392 6.36383 7.89915 0.0 112.853 0.0 42.3679 -13.8413 22.5313 0.0 0.0 0.0 0.0 0.0 0.0 117.564896 -1.04648 -365.499 39.3808 26.2873 -356.187 0.0 147.728 0.0 -4.48184 -2.92913 35.4565 0.0 0.0 0.0 0.0 0.0 0.0 -7.16681 -7.9655 -7.32698 0.0 18.8914 0.0 -19.5284 -6.8115005 5.40367 0.0 -17.21659 0.0 2.34821 -17.3031 20.5506 0.0 37.6221 0.0 29.268 -9.087 3.42938 0.0 -18.79861 0.0 
  1.5444200134277344 -8.401539916992187 9.315490112304687 126.027 82.6533 -129.424 -2.94117 -13.943 5.38388 0.746799 18.1465 -6.05705 17.2349 47.1369 342.297 -68.0212 -80.771 288.832 -115.8266 -2.61562 368.307 -42.8041 6.5155 8.08927 0.0 112.992 0.0 41.9914 -13.8496 21.76 0.0 0.0 0.0 0.0 0.0 0.0 117.3713 -1.01889 -365.804 39.6921 26.3114 -355.402 0.0 147.021 0.0 -2.01749 0.0625655 37.2328 0.0 0.0 0.0 0.0 0.0 0.0 -7.64294 -8.55693 -7.17135 0.0 19.0649 0.0 -19.2481 -6.101801 4.3443 0.0 -17.53161 0.0 1.7393 -19.0759 19.3776 0.0 40.4517 0.0 29.5666 -8.496799 4.42644 0.0 -19.69733 0.0 
